<svg width="52" height="33" viewBox="0 0 52 33" fill="none" xmlns="http://www.w3.org/2000/svg">
<path d="M50.0573 5.8614C49.7662 4.91748 49.1956 4.05668 48.4026 3.36516C47.6095 2.67363 46.6218 2.17563 45.5382 1.92099C41.5499 0.986817 25.5621 0.986816 25.5621 0.986816C25.5621 0.986816 9.57439 0.986816 5.58601 1.91602C4.50202 2.16983 3.51379 2.66756 2.72057 3.35921C1.92736 4.05087 1.35707 4.91211 1.06699 5.85643C-2.1766e-07 9.33473 0 16.5895 0 16.5895C0 16.5895 -2.1766e-07 23.8442 1.06699 27.3175C1.65469 29.2356 3.38926 30.7461 5.58601 31.2579C9.57439 32.1921 25.5621 32.1921 25.5621 32.1921C25.5621 32.1921 41.5499 32.1921 45.5382 31.2579C47.7407 30.7461 49.4696 29.2356 50.0573 27.3175C51.1243 23.8442 51.1243 16.5895 51.1243 16.5895C51.1243 16.5895 51.1243 9.33473 50.0573 5.8614ZM20.4839 23.2479V9.93101L33.7215 16.5398L20.4839 23.2479Z" fill="black"/>
</svg>
