<svg width="37" height="33" viewBox="0 0 37 33" fill="none" xmlns="http://www.w3.org/2000/svg">
<path d="M18.4502 11.2104C15.1113 11.2104 12.3866 13.6246 12.3866 16.583C12.3866 19.5413 15.1113 21.9555 18.4502 21.9555C21.789 21.9555 24.5137 19.5413 24.5137 16.583C24.5137 13.6246 21.789 11.2104 18.4502 11.2104ZM36.6363 16.583C36.6363 14.3582 36.6591 12.1535 36.5181 9.93277C36.377 7.3533 35.7129 5.06402 33.5841 3.17778C31.4507 1.28751 28.8715 0.703101 25.9603 0.578158C23.4493 0.453215 20.9611 0.473367 18.4547 0.473367C15.9438 0.473367 13.4556 0.453215 10.9492 0.578158C8.03791 0.703101 5.45418 1.29154 3.32534 3.17778C1.19194 5.06805 0.532364 7.3533 0.391351 9.93277C0.250337 12.1576 0.273082 14.3622 0.273082 16.583C0.273082 18.8037 0.250337 21.0124 0.391351 23.2332C0.532364 25.8126 1.19649 28.1019 3.32534 29.9881C5.45873 31.8784 8.03791 32.4628 10.9492 32.5878C13.4601 32.7127 15.9483 32.6926 18.4547 32.6926C20.9656 32.6926 23.4539 32.7127 25.9603 32.5878C28.8715 32.4628 31.4552 31.8744 33.5841 29.9881C35.7175 28.0979 36.377 25.8126 36.5181 23.2332C36.6636 21.0124 36.6363 18.8078 36.6363 16.583ZM18.4502 24.8494C13.2872 24.8494 9.12053 21.1575 9.12053 16.583C9.12053 12.0084 13.2872 8.31657 18.4502 8.31657C23.6131 8.31657 27.7798 12.0084 27.7798 16.583C27.7798 21.1575 23.6131 24.8494 18.4502 24.8494ZM28.1619 9.90858C26.9564 9.90858 25.983 9.04607 25.983 7.97801C25.983 6.90995 26.9564 6.04744 28.1619 6.04744C29.3673 6.04744 30.3408 6.90995 30.3408 7.97801C30.3411 8.23163 30.285 8.48281 30.1756 8.71719C30.0663 8.95156 29.9058 9.16451 29.7034 9.34384C29.501 9.52318 29.2606 9.66537 28.9961 9.76228C28.7316 9.85918 28.4481 9.9089 28.1619 9.90858Z" fill="black"/>
</svg>
