<svg width="81" height="54" viewBox="0 0 81 54" fill="none" xmlns="http://www.w3.org/2000/svg">
<path d="M1.49012e-07 50.4C5.2 47.8667 9.13333 45.0667 11.8 42C14.6 38.9333 16.7333 34.9333 18.2 30C12.3333 28.2667 9.4 24.3333 9.4 18.2C9.4 14.4667 10.6 9.46666 13 3.2C17.2667 1.06666 21.6667 -7.62939e-06 26.2 -7.62939e-06C30.7333 -7.62939e-06 34.2667 1.33332 36.8 3.99999C39.4667 6.53333 40.8 10.0667 40.8 14.6C40.8 23.6667 37.5333 32.4667 31 41C24.4667 49.4 17.0667 53.6 8.8 53.6C5.46667 53.6 2.53333 52.5333 1.49012e-07 50.4ZM40 50.4C45.2 47.8667 49.1333 45.0667 51.8 42C54.6 38.9333 56.7333 34.9333 58.2 30C52.3333 28.2667 49.4 24.3333 49.4 18.2C49.4 14.4667 50.6 9.46666 53 3.2C57.2667 1.06666 61.6667 -7.62939e-06 66.2 -7.62939e-06C70.7333 -7.62939e-06 74.2667 1.33332 76.8 3.99999C79.4667 6.53333 80.8 10.0667 80.8 14.6C80.8 23.6667 77.5333 32.4667 71 41C64.4667 49.4 57.0667 53.6 48.8 53.6C45.4667 53.6 42.5333 52.5333 40 50.4Z" fill="#CB572C"/>
</svg>
