<svg width="81" height="54" viewBox="0 0 81 54" fill="none" xmlns="http://www.w3.org/2000/svg">
<path d="M40.8 3.4C35.6 5.93333 31.6 8.73333 28.8 11.8C26.1333 14.8667 24.0667 18.8667 22.6 23.8C28.4667 25.5333 31.4 29.4667 31.4 35.6C31.4 39.3333 30.2 44.3333 27.8 50.6C23.5333 52.7333 19.1333 53.8 14.6 53.8C10.0667 53.8 6.46667 52.5333 3.8 50C1.26667 47.3333 1.49012e-07 43.7333 1.49012e-07 39.2C1.49012e-07 30.1333 3.26667 21.4 9.8 13C16.3333 4.46666 23.7333 0.19999 32 0.19999C35.3333 0.19999 38.2667 1.26666 40.8 3.4ZM80.8 3.4C75.6 5.93333 71.6 8.73333 68.8 11.8C66.1333 14.8667 64.0667 18.8667 62.6 23.8C68.4667 25.5333 71.4 29.4667 71.4 35.6C71.4 39.3333 70.2 44.3333 67.8 50.6C63.5333 52.7333 59.1333 53.8 54.6 53.8C50.0667 53.8 46.4667 52.5333 43.8 50C41.2667 47.3333 40 43.7333 40 39.2C40 30.1333 43.2667 21.4 49.8 13C56.3333 4.46666 63.7333 0.19999 72 0.19999C75.3333 0.19999 78.2667 1.26666 80.8 3.4Z" fill="#CB572C"/>
</svg>
