<svg width="18" height="17" viewBox="0 0 18 17" fill="none" xmlns="http://www.w3.org/2000/svg">
<path d="M8.16602 6.95768L7.41602 6.22852C7.24935 6.07574 7.05129 6.00268 6.82185 6.00935C6.5924 6.01602 6.40157 6.09602 6.24935 6.24935C6.09657 6.40213 6.02018 6.59657 6.02018 6.83268C6.02018 7.06879 6.09657 7.26324 6.24935 7.41602L8.41602 9.58268C8.56879 9.73546 8.76324 9.81185 8.99935 9.81185C9.23546 9.81185 9.4299 9.73546 9.58268 9.58268L11.7702 7.39518C11.923 7.2424 11.996 7.05129 11.9893 6.82185C11.9827 6.5924 11.9027 6.40157 11.7493 6.24935C11.5966 6.09657 11.4021 6.01657 11.166 6.00935C10.9299 6.00213 10.7355 6.08213 10.5827 6.24935L9.83268 6.95768V4.31185C9.83268 4.07574 9.75268 3.88129 9.59268 3.72852C9.43268 3.57574 9.2349 3.49935 8.99935 3.49935C8.76324 3.49935 8.56518 3.57935 8.40518 3.73935C8.24518 3.89935 8.16546 4.09713 8.16602 4.33268V6.95768ZM5.66602 12.666H12.3535C12.5896 12.666 12.7841 12.586 12.9368 12.426C13.0896 12.266 13.166 12.0682 13.166 11.8327C13.166 11.5966 13.086 11.3985 12.926 11.2385C12.766 11.0785 12.5682 10.9988 12.3327 10.9993H5.64518C5.40907 10.9993 5.21463 11.0793 5.06185 11.2393C4.90907 11.3993 4.83268 11.5971 4.83268 11.8327C4.83268 12.0688 4.91268 12.2668 5.07268 12.4268C5.23268 12.5868 5.43046 12.6666 5.66602 12.666ZM8.99935 16.8327C7.84657 16.8327 6.76324 16.6138 5.74935 16.176C4.73546 15.7382 3.85352 15.1446 3.10352 14.3952C2.35352 13.6452 1.7599 12.7632 1.32268 11.7493C0.88546 10.7355 0.666571 9.65213 0.666016 8.49935C0.666016 7.34657 0.884905 6.26324 1.32268 5.24935C1.76046 4.23546 2.35407 3.35352 3.10352 2.60352C3.85352 1.85352 4.73546 1.2599 5.74935 0.822682C6.76324 0.38546 7.84657 0.166571 8.99935 0.166016C10.1521 0.166016 11.2355 0.384905 12.2493 0.822682C13.2632 1.26046 14.1452 1.85407 14.8952 2.60352C15.6452 3.35352 16.2391 4.23546 16.6768 5.24935C17.1146 6.26324 17.3332 7.34657 17.3327 8.49935C17.3327 9.65213 17.1138 10.7355 16.676 11.7493C16.2382 12.7632 15.6446 13.6452 14.8952 14.3952C14.1452 15.1452 13.2632 15.7391 12.2493 16.1768C11.2355 16.6146 10.1521 16.8332 8.99935 16.8327Z" fill="white"/>
</svg>
