<svg width="25" height="35" viewBox="0 0 25 35" fill="none" xmlns="http://www.w3.org/2000/svg">
<path d="M14.0086 34.0285C17.3402 29.7704 24.9388 19.45 24.9388 13.653C24.9388 6.62242 19.3535 0.918335 12.4694 0.918335C5.58525 0.918335 0 6.62242 0 13.653C0 19.45 7.59853 29.7704 10.9302 34.0285C11.729 35.0433 13.2098 35.0433 14.0086 34.0285ZM12.4694 17.8979C10.1768 17.8979 8.31293 15.9944 8.31293 13.653C8.31293 11.3117 10.1768 9.40813 12.4694 9.40813C14.7619 9.40813 16.6259 11.3117 16.6259 13.653C16.6259 15.9944 14.7619 17.8979 12.4694 17.8979Z" fill="#CB572C"/>
</svg>
