<svg width="28" height="23" viewBox="0 0 28 23" fill="none" xmlns="http://www.w3.org/2000/svg">
<path d="M27.5629 6.47813V18.5795C27.5629 19.7053 27.1156 20.785 26.3196 21.5811C25.5235 22.3772 24.4438 22.8244 23.318 22.8244H4.64041C3.51459 22.8244 2.43488 22.3772 1.63881 21.5811C0.842737 20.785 0.395508 19.7053 0.395508 18.5795V6.47813L13.5479 14.2174C13.6786 14.2945 13.8275 14.3351 13.9792 14.3351C14.1309 14.3351 14.2798 14.2945 14.4105 14.2174L27.5629 6.47813ZM23.318 0.750916C24.3624 0.750751 25.3703 1.13568 26.1488 1.83207C26.9273 2.52846 27.4217 3.48742 27.5374 4.52548L13.9792 12.5008L0.420977 4.52548C0.536707 3.48742 1.03109 2.52846 1.80956 1.83207C2.58802 1.13568 3.59591 0.750751 4.64041 0.750916H23.318Z" fill="#CB572C"/>
</svg>
