<svg width="32" height="32" viewBox="0 0 32 32" fill="none" xmlns="http://www.w3.org/2000/svg">
<path d="M0.704102 2.27995C0.704102 1.05351 1.72323 0.0595703 2.98066 0.0595703H29.4275C30.685 0.0595703 31.7041 1.05351 31.7041 2.27995V28.8392C31.7041 30.0656 30.685 31.0596 29.4275 31.0596H2.98066C1.72323 31.0596 0.704102 30.0656 0.704102 28.8392V2.27995ZM10.2812 26.0104V12.012H5.62923V26.0104H10.2812ZM7.95616 10.0997C9.57785 10.0997 10.5873 9.02632 10.5873 7.6817C10.5582 6.30801 9.57979 5.2637 7.98716 5.2637C6.39454 5.2637 5.3541 6.30995 5.3541 7.6817C5.3541 9.02632 6.36354 10.0997 7.92516 10.0997H7.95616ZM17.4654 26.0104V18.1926C17.4654 17.7741 17.4964 17.3556 17.6204 17.0573C17.9556 16.2222 18.7209 15.3561 20.0074 15.3561C21.6911 15.3561 22.3634 16.6388 22.3634 18.522V26.0104H27.0154V17.9814C27.0154 13.6802 24.7214 11.6807 21.6601 11.6807C19.1917 11.6807 18.0854 13.0369 17.4654 13.9921V14.0406H17.4344C17.4447 14.0244 17.455 14.0083 17.4654 13.9921V12.012H12.8154C12.8735 13.3256 12.8154 26.0104 12.8154 26.0104H17.4654Z" fill="white"/>
</svg>
