<svg width="37" height="33" viewBox="0 0 37 33" fill="none" xmlns="http://www.w3.org/2000/svg">
<path d="M18.2898 11.27C14.9509 11.27 12.2262 13.6843 12.2262 16.6426C12.2262 19.6009 14.9509 22.0151 18.2898 22.0151C21.6286 22.0151 24.3533 19.6009 24.3533 16.6426C24.3533 13.6843 21.6286 11.27 18.2898 11.27ZM36.4759 16.6426C36.4759 14.4178 36.4987 12.2132 36.3577 9.9924C36.2166 7.41293 35.5525 5.12365 33.4237 3.23741C31.2903 1.34714 28.7111 0.762732 25.7999 0.637789C23.2889 0.512846 20.8007 0.532998 18.2943 0.532998C15.7834 0.532998 13.2952 0.512846 10.7888 0.637789C7.87751 0.762732 5.29378 1.35117 3.16494 3.23741C1.03154 5.12768 0.371964 7.41293 0.23095 9.9924C0.089937 12.2172 0.112681 14.4218 0.112681 16.6426C0.112681 18.8634 0.089937 21.072 0.23095 23.2928C0.371964 25.8723 1.03609 28.1615 3.16494 30.0478C5.29833 31.938 7.87751 32.5225 10.7888 32.6474C13.2997 32.7723 15.7879 32.7522 18.2943 32.7522C20.8052 32.7522 23.2935 32.7723 25.7999 32.6474C28.7111 32.5225 31.2948 31.934 33.4237 30.0478C35.5571 28.1575 36.2166 25.8723 36.3577 23.2928C36.5032 21.072 36.4759 18.8674 36.4759 16.6426ZM18.2898 24.909C13.1268 24.909 8.96013 21.2171 8.96013 16.6426C8.96013 12.0681 13.1268 8.3762 18.2898 8.3762C23.4527 8.3762 27.6194 12.0681 27.6194 16.6426C27.6194 21.2171 23.4527 24.909 18.2898 24.909ZM28.0015 9.96821C26.796 9.96821 25.8226 9.10571 25.8226 8.03764C25.8226 6.96958 26.796 6.10707 28.0015 6.10707C29.2069 6.10707 30.1804 6.96958 30.1804 8.03764C30.1807 8.29126 30.1246 8.54245 30.0152 8.77682C29.9059 9.01119 29.7454 9.22414 29.543 9.40347C29.3406 9.58281 29.1002 9.725 28.8357 9.82191C28.5712 9.91882 28.2877 9.96853 28.0015 9.96821Z" fill="white"/>
</svg>
