<svg width="22" height="28" viewBox="0 0 22 28" fill="none" xmlns="http://www.w3.org/2000/svg">
<path d="M5.86347 0.507972C6.60647 0.283955 7.40378 0.321172 8.12268 0.613427C8.84157 0.905682 9.43869 1.43534 9.81462 2.11424L9.94027 2.36724L11.0643 4.86493C11.4055 5.62305 11.5162 6.46472 11.3828 7.28527C11.2493 8.10582 10.8776 8.86903 10.3138 9.47999L10.088 9.70412L8.31702 11.3562C7.99781 11.6585 8.23722 12.8284 9.39183 14.8286C10.431 16.6284 11.2766 17.4689 11.6926 17.5147H11.7656L11.8556 17.4978L15.3364 16.4331C15.8042 16.2897 16.3034 16.284 16.7744 16.4168C17.2453 16.5496 17.668 16.8152 17.992 17.1819L18.1465 17.3772L20.4506 20.5694C20.9022 21.195 21.1272 21.9559 21.0887 22.7265C21.0501 23.4972 20.7502 24.2317 20.2384 24.8092L20.0312 25.0231L19.1109 25.8959C18.2845 26.6785 17.2508 27.2073 16.1326 27.4195C15.0143 27.6318 13.8587 27.5184 12.803 27.0929C9.51748 25.7685 6.53247 22.7427 3.82083 18.0462C1.10409 13.3378 -0.0250513 9.23378 0.479243 5.71901C0.631844 4.65654 1.06935 3.65523 1.7453 2.82143C2.42125 1.98763 3.3104 1.35247 4.31833 0.983401L4.64603 0.874731L5.86347 0.507972Z" fill="#CB572C"/>
</svg>
