<svg width="52" height="32" viewBox="0 0 52 32" fill="none" xmlns="http://www.w3.org/2000/svg">
<path d="M50.6373 4.92097C50.3463 3.97705 49.7757 3.11626 48.9826 2.42473C48.1896 1.7332 47.2019 1.2352 46.1183 0.980558C42.13 0.0463869 26.1422 0.0463867 26.1422 0.0463867C26.1422 0.0463867 10.1545 0.0463865 6.16609 0.975589C5.0821 1.2294 4.09387 1.72713 3.30065 2.41878C2.50743 3.11044 1.93715 3.97168 1.64707 4.916C0.580078 8.3943 0.580078 15.649 0.580078 15.649C0.580078 15.649 0.580078 22.9038 1.64707 26.3771C2.23477 28.2951 3.96934 29.8057 6.16609 30.3175C10.1545 31.2517 26.1422 31.2517 26.1422 31.2517C26.1422 31.2517 42.13 31.2517 46.1183 30.3175C48.3208 29.8057 50.0496 28.2951 50.6373 26.3771C51.7043 22.9038 51.7043 15.649 51.7043 15.649C51.7043 15.649 51.7043 8.3943 50.6373 4.92097ZM21.064 22.3075V8.99058L34.3015 15.5993L21.064 22.3075Z" fill="white"/>
</svg>
